<?xml version="1.0" encoding="UTF-8" standalone="no"?>
<svg
   width="980"
   height="220"
   viewBox="0 0 980 220"
   version="1.1"
   id="svg3"
   xmlns="http://www.w3.org/2000/svg"
   xmlns:svg="http://www.w3.org/2000/svg">
  <defs
     id="defs1">
    <style
       id="style1">.navy{fill:#071b4f;}</style>
  </defs>
  <g
     class="navy"
     transform="translate(36,24)"
     id="g3">
    <path
       id="polygon1"
       d="M 25,158 46,24 h 48 l -8,52 h 56 l 8,-52 h 48 l -21,134 h -48 l 9,-58 H 82 l -9,58 z" />
    <path
       id="polygon2"
       d="m 132,24 h 33 l -5,51 h -33 z" />
    <path
       id="polygon3"
       d="m 206,91 65,-67 h 52 l -63,67 58,67 h -54 z" />
  </g>
  <path
     d="m 386.62598,138.00098 c 14.01367,0 22.10156,-7.36719 22.10156,-17.49707 0,-10.77051 -9.56934,-14.8545 -17.17676,-16.81641 l -5.80566,-1.52148 c -4.56446,-1.20118 -10.73047,-3.323247 -10.73047,-8.968754 0,-5.044922 4.56445,-8.728516 11.81152,-8.728516 6.7666,0 11.61133,3.123047 12.21192,8.568359 h 8.88867 c -0.28028,-9.489257 -8.64844,-16.496093 -20.90039,-16.496093 -12.01172,0 -21.14063,6.846679 -21.14063,17.176757 0,8.167967 5.76563,13.172857 15.53516,15.775387 l 6.9668,1.92188 c 6.40625,1.72168 11.33105,3.76367 11.33105,8.96875 0,5.76562 -5.56543,9.60937 -13.13281,9.60937 -6.88672,0 -12.65235,-3.04296 -13.17285,-9.56933 h -9.16895 c 0.56055,10.89062 8.96875,17.57715 22.38184,17.57715 z m 59.3164,-0.2002 c 15.45508,0 26.86621,-11.53125 26.86621,-30.58984 0,-19.138674 -11.41113,-30.669924 -26.86621,-30.669924 -15.49511,0 -26.94629,11.53125 -26.94629,30.669924 0,19.05859 11.45118,30.58984 26.94629,30.58984 z m 0,-8.32812 c -10.25,0 -17.89746,-7.84766 -17.89746,-22.26172 0,-14.454104 7.64746,-22.341799 17.89746,-22.341799 10.16992,0 17.81739,7.847656 17.81739,22.341799 0,14.41406 -7.64747,22.26172 -17.81739,22.26172 z M 485.43945,137 h 36.15528 v -7.84766 H 494.56836 V 77.341797 h -9.12891 z m 71.64844,0.9209 c 14.25391,0 23.70313,-8.88867 23.70313,-21.4209 V 77.341797 h -9.16895 v 38.397463 c 0,8.04785 -5.56543,13.89355 -14.53418,13.89355 -9.00879,0 -14.6543,-5.8457 -14.6543,-13.89355 V 77.341797 h -9.1289 V 116.5 c 0,12.53223 9.40918,21.4209 23.7832,21.4209 z m 35.41309,-52.731447 h 18.61816 V 137 h 9.16895 V 85.189453 h 18.53808 v -7.847656 h -46.32519 z m 67.16406,-7.847656 h -9.12891 V 137 h 9.12891 z m 39.57715,60.458983 c 15.45508,0 26.86621,-11.53125 26.86621,-30.58984 0,-19.138674 -11.41113,-30.669924 -26.86621,-30.669924 -15.49512,0 -26.94629,11.53125 -26.94629,30.669924 0,19.05859 11.45117,30.58984 26.94629,30.58984 z m 0,-8.32812 c -10.25,0 -17.89746,-7.84766 -17.89746,-22.26172 0,-14.454104 7.64746,-22.341799 17.89746,-22.341799 10.16992,0 17.81738,7.847656 17.81738,22.341799 0,14.41406 -7.64746,22.26172 -17.81738,22.26172 z M 738.73926,137 h 9.24902 v -31.83105 c 0,-3.08301 -0.32031,-9.249028 -0.68066,-16.736333 4.32422,8.007813 6.60644,12.131833 9.52929,16.816403 L 776.97656,137 h 10.57031 V 77.341797 h -9.24902 v 33.953123 c 0,3.44336 0.16016,9.00879 0.60059,14.77442 -2.64258,-5.72559 -5.3252,-10.25 -7.16699,-13.21289 L 749.26953,77.341797 h -10.53027 z"
     id="text3"
     style="font-weight:500;font-size:82px;font-family:Inter, sans-serif;letter-spacing:1.5;fill:#071b4f"
     aria-label="SOLUTION" />
</svg>
